<?xml version="1.0" encoding="utf-8"?>
<!-- Generator: Adobe Illustrator 23.0.3, SVG Export Plug-In . SVG Version: 6.00 Build 0)  -->
<svg version="1.1" id="Calque_1" xmlns="http://www.w3.org/2000/svg" xmlns:xlink="http://www.w3.org/1999/xlink" x="0px" y="0px"
	 width="566.9px" height="566.9px" viewBox="0 0 566.9 566.9" style="enable-background:new 0 0 566.9 566.9;" xml:space="preserve"
	>
<style type="text/css">
	.st0{fill:#E8442D;}
	.st1{fill:#3C3C3B;}
</style>
<g>
</g>
<g>
</g>
<g>
	<g>
		<g>
			<path class="st0" d="M408.3,131.5c-10-16.8-22.3-32.1-36.5-45.4c-1.6-1.5-3.7-2.4-6-2.4c-12.3,0-55.8,0-96.2,0
				c-42.9,0-77.7,34.8-77.7,77.7V181c0,17.3,5.8,33.2,15.4,46.1h-0.1c2.6,3.5,5.4,6.8,8.5,9.8h0.1c13.6,11.7,30.9,19.4,50.3,19.4
				h15.6c3.8,0,7-2.8,7.7-6.6c3.8-22.8-3.6-40.4-8.2-48.5c-1.2-2.2-3.6-3.3-6.1-3.5c-11.9-0.8-23.1-9.6-23.1-26.1
				c0-17.1,10.7-26,26.3-26.7l122.3,0C407.5,145,411.8,137.4,408.3,131.5z"/>
		</g>
		<g>
			<path class="st0" d="M340.9,309.3c13.6-20.9,21.6-45.8,21.6-72.6c0-30.5-6.9-58.8-30.4-81.2h-57.3c-7.6,0.7-13.6,8.5-12.4,14.7
				c0.4,1.1,1.1,1.5,2,1.9c26.3,13.6,40.9,42.4,36.5,74.9c-4.5,32.4-31.1,58.3-63.6,62.1c-1.2,0.1-2.4,0.1-3.6,0.2h-9.3
				c-29.9,0-63.9-22.6-73.5-51c-13.3-39.3-0.6-75.6,26.3-96.1c2.2-1.7,3.6-4.2,3.8-6.9c2.8-39.1,21.7-56.9,35.2-65.7
				c2.3-1.5,1-5-1.7-4.6C145,93.1,88.1,149,84.7,220.1c-3.8,80,58.2,146.6,136.5,150.1l0,0c1.8,0.1,3.5,0,5.3,0
				C305.4,370.5,340.9,309.3,340.9,309.3z"/>
			<path class="st0" d="M399.3,197.9c-2.3,0-25.3,0-25.3,0c-3.4,0-5.9,3.1-5.2,6.4c2.3,10.9,5.4,29.1,3.5,45.2
				c-0.4,3.7,2.5,6.9,6.2,6.9l6.9,0.3c16.6,0,28.2,8.7,28.2,26c0,17.1-10.7,26-26.3,26.7h-30.7c-2.6,0-5,1.5-6.3,3.8
				c-19.2,33.5-47.6,49-60.9,54.7c-1.5,0.6-1,2.8,0.6,2.8h112.9c39.1,0,70.8-31.7,70.8-70.8v-26.4
				C473.7,255.9,464.6,197.9,399.3,197.9z"/>
		</g>
	</g>
	<g>
		<g>
			<g>
				<path class="st1" d="M114.7,447.3c-9.5,0-16.8-7.2-16.8-16.3c0-8.6,6.6-16.2,16.8-16.2c10.1,0,16.8,7.6,16.8,16.1
					C131.5,440.4,123.9,447.3,114.7,447.3z M114.8,417.1c-8.1,0-14.1,6.2-14.1,13.9c0,7.5,5.8,13.9,13.9,13.9
					c7.3,0,14.1-5.4,14.1-14.1C128.7,423.6,123,417.1,114.8,417.1z"/>
				<path class="st1" d="M161.9,415.2c4.5,0,6.4,0.1,8.6,1.3c2.4,1.3,3.9,3.8,3.9,7c0,3.3-1.7,6.1-4.1,7.2c-2.7,1.3-4.6,1.3-8.2,1.3
					h-4.3v14.8h-2.4v-31.7H161.9z M157.9,417.2V430h4.5c3.1,0,5.2-0.2,7.1-1.4c1.4-0.9,2.3-3.1,2.3-5s-0.8-3.9-2.3-5
					c-1.3-0.9-3-1.4-7.4-1.4H157.9z"/>
				<path class="st1" d="M214.8,417.2h-14.8v12.6h14.4v2h-14.4v13h15.2v2h-17.6v-31.7h17.3V417.2z"/>
				<path class="st1" d="M267.9,446.8h-2l-24-27.9v27.9h-2.5v-31.7h2.3l23.8,27.7v-27.7h2.5V446.8z"/>
				<path class="st1" d="M308.7,419.5c-2.6-1.5-4.5-2.5-7.1-2.5c-4.5,0-6.7,3.4-6.7,6.1c0,4,3.6,5.3,7.1,6.5c3.8,1.3,8.1,3.4,8.1,9
					s-4.8,8.7-9.2,8.7c-2.9,0-5.7-1.2-8.1-2.8v-2.9c2.7,1.9,5.1,3.3,8,3.3c4.5,0,6.7-3.4,6.7-6.3c0-4.3-4-5.9-6.5-6.7
					c-4.2-1.4-5-2.1-5.7-2.7c-1.7-1.4-2.9-3.5-2.9-6c0-4.2,3.6-8.4,9-8.4c2.6,0,5.1,0.7,7.4,2V419.5z"/>
				<path class="st1" d="M359.6,420.1c-2.5-1.3-5.9-3-10.8-3c-8.4,0-14.2,5.8-14.2,13.9c0,8.2,5.9,13.9,14.1,13.9
					c5.1,0,9.4-2.2,11.2-3.2v2.6c-5.2,2.7-9.6,3-11.2,3c-8.7,0-16.8-6-16.8-16.2c0-10.8,9.2-16.3,16.5-16.3c3.9,0,7.7,1,11.2,2.6
					V420.1z"/>
				<path class="st1" d="M398.7,447.3c-9.5,0-16.8-7.2-16.8-16.3c0-8.6,6.6-16.2,16.8-16.2c10.1,0,16.8,7.6,16.8,16.1
					C415.5,440.4,407.8,447.3,398.7,447.3z M398.8,417.1c-8.1,0-14.1,6.2-14.1,13.9c0,7.5,5.8,13.9,13.9,13.9
					c7.3,0,14.1-5.4,14.1-14.1C412.7,423.6,407,417.1,398.8,417.1z"/>
				<path class="st1" d="M445.9,415.2c4.5,0,6.4,0.1,8.6,1.3c2.4,1.3,3.9,3.8,3.9,7c0,3.3-1.7,6.1-4.1,7.2c-2.7,1.3-4.6,1.3-8.2,1.3
					h-4.3v14.8h-2.4v-31.7H445.9z M441.9,417.2V430h4.5c3.1,0,5.2-0.2,7.1-1.4c1.4-0.9,2.3-3.1,2.3-5s-0.8-3.9-2.3-5
					c-1.3-0.9-3-1.4-7.4-1.4H441.9z"/>
			</g>
		</g>
	</g>
</g>
<g>
	<path class="st1" d="M113.6,488h-1.3l0.2-1.5c-1.1,1-2.9,1.8-4.5,1.8c-2.7,0-4.6-2.2-4.6-5.2c0-4.1,3.2-8.4,9.3-8.4
		c1,0,2.1,0.1,2.7,0.3L113.6,488z M114,475.8c-0.5-0.1-1-0.2-1.6-0.2c-4,0-7.6,3-7.6,7.6c0,2.4,1.3,4,3.4,4c1.6,0,3-0.8,4.5-2.2
		L114,475.8z"/>
	<path class="st1" d="M125.7,478.5L125.7,478.5c2-2.7,3-3.8,4.7-3.8c0.5,0,0.9,0.1,1.3,0.3v1.3c-0.6-0.3-1-0.3-1.3-0.3
		c-1.6,0-3.4,2.2-4.8,4.4l-1.1,7.8h-1.3l1.8-13.1h1.3L125.7,478.5z"/>
	<path class="st1" d="M146,475.9h-3.7l-1.3,8.5c-0.1,0.4-0.1,0.7-0.1,1c0,1.2,0.5,1.9,1.8,1.9c0.8,0,1.6-0.3,2.4-1.1v1.2
		c-0.8,0.7-1.7,0.9-2.6,0.9c-2,0-2.9-1-2.9-2.9c0-0.4,0-0.8,0.1-1.3l1.3-8.3h-2.4l0.1-1h2.4l0.4-3h1.2l-0.4,3h3.7L146,475.9z"/>
	<path class="st1" d="M154.5,488h-1.3l1.8-13.1h1.3L154.5,488z M156.8,471.4h-1.3l0.3-2.2h1.3L156.8,471.4z"/>
	<path class="st1" d="M173,477.3c-1.6-1-2.9-1.5-4.3-1.5c-1.5,0-2.7,0.8-2.7,1.9c0,2.5,6.3,3.4,6.3,7.1c0,1.9-1.9,3.4-4.3,3.4
		c-1.5,0-3.1-0.6-4.4-1.7l0.4-1.4c1.2,1.3,2.6,1.9,4.1,1.9c1.6,0,2.9-0.9,2.9-2.1c0-2.7-6.2-3.7-6.2-7.1c0-1.9,1.8-3.3,4.2-3.3
		c1.3,0,2.7,0.4,4,1.2V477.3z"/>
	<path class="st1" d="M190.1,488h-1.3l0.2-1.5c-1.1,1-2.9,1.8-4.5,1.8c-2.7,0-4.6-2.2-4.6-5.2c0-4.1,3.2-8.4,9.3-8.4
		c1,0,2.1,0.1,2.7,0.3L190.1,488z M190.5,475.8c-0.5-0.1-1-0.2-1.6-0.2c-4,0-7.6,3-7.6,7.6c0,2.4,1.3,4,3.4,4c1.6,0,3-0.8,4.5-2.2
		L190.5,475.8z"/>
	<path class="st1" d="M202.5,477.1L202.5,477.1c1.4-1.3,3.1-2.4,5-2.4c2.2,0,3.6,2,3.2,4.4l-1.3,9h-1.3l1.2-8.8
		c0.3-2.3-0.8-3.4-2.3-3.4c-1.6,0-3.1,1-4.9,2.9l-1.3,9.3h-1.3l1.8-13.1h1.3L202.5,477.1z"/>
	<path class="st1" d="M227.6,477.3c-1.6-1-2.9-1.5-4.3-1.5c-1.5,0-2.7,0.8-2.7,1.9c0,2.5,6.3,3.4,6.3,7.1c0,1.9-1.9,3.4-4.3,3.4
		c-1.5,0-3.1-0.6-4.4-1.7l0.4-1.4c1.2,1.3,2.6,1.9,4.1,1.9c1.6,0,2.9-0.9,2.9-2.1c0-2.7-6.2-3.7-6.2-7.1c0-1.9,1.8-3.3,4.2-3.3
		c1.3,0,2.7,0.4,4,1.2V477.3z"/>
	<path class="st1" d="M258.1,487.9l-0.5,0.1c-1.5,0.3-2.1,0.3-3,0.3c-1.8,0-3.2-0.4-4.3-1.2c-1.5-1.1-2.4-2.9-2.4-4.8
		c0-2.3,1.3-4.7,3.2-6c1.5-1,3.3-1.5,5.7-1.5c0.6,0,1.1,0.1,1.9,0.1l0.9-6.6h1.3L258.1,487.9z M258.5,475.9
		c-0.7-0.2-1.2-0.2-1.8-0.2c-1.5,0-3.1,0.3-4.3,1c-2,1.2-3.2,3.4-3.2,5.6c0,3.5,2.8,5,5.5,5c0.7,0,1.5-0.1,2.3-0.3L258.5,475.9z"/>
	<path class="st1" d="M277.5,488h-1.3l0.3-2.3l-0.1-0.1c-1.6,1.7-3.3,2.6-5.1,2.6c-1.7,0-3.6-1.2-3.2-4l1.3-9.4h1.3l-1.3,9.3
		c-0.2,1.7,0.7,2.8,2.3,2.8c1.5,0,3-0.9,5-3.1l1.3-9h1.3L277.5,488z"/>
	<path class="st1" d="M302.9,477.1L302.9,477.1c1.4-1.3,3.1-2.4,5-2.4c2.2,0,3.6,2,3.2,4.4l-1.3,9h-1.3l1.2-8.8
		c0.3-2.3-0.8-3.4-2.3-3.4c-1.6,0-3.1,1-4.9,2.9l-1.3,9.3h-1.3l1.8-13.1h1.3L302.9,477.1z"/>
	<path class="st1" d="M328.9,488h-1.3l0.4-2.3l-0.1-0.1c-1.6,1.7-3.3,2.6-5.1,2.6c-1.7,0-3.6-1.2-3.2-4l1.3-9.4h1.3l-1.3,9.3
		c-0.2,1.7,0.7,2.8,2.3,2.8c1.5,0,3-0.9,5-3.1l1.3-9h1.3L328.9,488z"/>
	<path class="st1" d="M341.2,477.2c1.9-1.7,3.2-2.5,5-2.5c1.7,0,2.9,1.3,3.1,2.8c1.7-1.9,3.4-2.8,5-2.8c2.3,0,3.6,1.8,3.4,3.6
		l-1.4,9.7H355l1.3-9.5c0.3-1.8-1-2.7-2.1-2.7c-1.5,0-3.5,1.1-4.9,2.9L348,488h-1.3l1.3-9.1c0.3-2.2-0.7-3-2.1-3
		c-1.5,0-3.3,1-4.9,2.9l-1.3,9.3h-1.3l1.8-13.1h1.3L341.2,477.2z"/>
	<path class="st1" d="M375.7,486.8c-1.1,0.9-2.6,1.5-4.1,1.5c-3.5,0-5.8-2.5-5.8-6.3c0-4.1,2.7-7.3,6.1-7.3c2.8,0,4.7,2.1,4.7,5.5
		c0,0.4,0,0.7-0.1,1h-9.2c0,0.3-0.1,0.6-0.1,0.8c0,2.3,1.4,5,4.5,5c1.3,0,2.8-0.6,4.1-1.6V486.8z M375.3,480.1
		c0.1-2.7-1.3-4.2-3.4-4.2c-2,0-4.1,1.9-4.4,4.2H375.3z M371.6,473.3h-1l3.1-4.5h2.3L371.6,473.3z"/>
	<path class="st1" d="M386.9,478.5L386.9,478.5c2-2.7,3-3.8,4.7-3.8c0.5,0,0.9,0.1,1.3,0.3v1.3c-0.6-0.3-1-0.3-1.3-0.3
		c-1.6,0-3.4,2.2-4.8,4.4l-1.1,7.8h-1.3l1.8-13.1h1.3L386.9,478.5z"/>
	<path class="st1" d="M400.5,488h-1.3l1.8-13.1h1.3L400.5,488z M402.8,471.4h-1.3l0.3-2.2h1.3L402.8,471.4z"/>
	<path class="st1" d="M418.7,494.5h-1.3l1-7.1c-1.7,0.8-2.5,1-3.6,1c-2.9,0-4.8-2.2-4.8-5.5c0-3.9,2.7-8.1,8.8-8.1h2.7L418.7,494.5z
		 M420,475.6h-1.1c-5.9,0-7.6,4.1-7.6,7.1c0,2.8,1.5,4.6,4,4.6c1,0,1.8-0.2,3.3-1.1L420,475.6z"/>
	<path class="st1" d="M438.7,488h-1.3l0.4-2.3l-0.1-0.1c-1.6,1.7-3.3,2.6-5.1,2.6c-1.7,0-3.6-1.2-3.2-4l1.3-9.4h1.3l-1.3,9.3
		c-0.2,1.7,0.7,2.8,2.3,2.8c1.5,0,3-0.9,5-3.1l1.3-9h1.3L438.7,488z"/>
	<path class="st1" d="M457.9,486.8c-1.1,0.9-2.6,1.5-4.1,1.5c-3.5,0-5.8-2.5-5.8-6.3c0-4.1,2.7-7.3,6.1-7.3c2.8,0,4.7,2.1,4.7,5.5
		c0,0.4,0,0.7-0.1,1h-9.2c0,0.3-0.1,0.6-0.1,0.8c0,2.3,1.4,5,4.5,5c1.3,0,2.8-0.6,4.1-1.6V486.8z M457.4,480.1
		c0.1-2.7-1.3-4.2-3.4-4.2c-2,0-4.1,1.9-4.4,4.2H457.4z"/>
</g>
</svg>
